<svg xmlns="http://www.w3.org/2000/svg" viewBox="0 0 96 120" x="0px" y="0px"><title>Artboard 7</title><g><path d="M70,32a1.9988,1.9988,0,0,0-2,2v4a2,2,0,0,0,4,0V34A1.9988,1.9988,0,0,0,70,32Z"/><path d="M70,44a1.9988,1.9988,0,0,0-2,2v4a2,2,0,0,0,4,0V46A1.9988,1.9988,0,0,0,70,44Z"/><path d="M70,56a1.9988,1.9988,0,0,0-2,2v4a2,2,0,0,0,4,0V58A1.9988,1.9988,0,0,0,70,56Z"/><path d="M90.3984,40.16A1.9973,1.9973,0,0,0,92,38.2012V22a1.9988,1.9988,0,0,0-2-2H6a1.9988,1.9988,0,0,0-2,2V38.2012A1.9973,1.9973,0,0,0,5.6016,40.16a8.0022,8.0022,0,0,1,0,15.68A1.9973,1.9973,0,0,0,4,57.7988V74a1.9988,1.9988,0,0,0,2,2H90a1.9988,1.9988,0,0,0,2-2V57.7988a1.9973,1.9973,0,0,0-1.6016-1.959,8.0022,8.0022,0,0,1,0-15.68ZM88,59.3145V72H72V70a2,2,0,0,0-4,0v2H8V59.3145a12.0011,12.0011,0,0,0,0-22.629V24H68v2a2,2,0,0,0,4,0V24H88V36.6855a12.0011,12.0011,0,0,0,0,22.629Z"/><path d="M32,46a6,6,0,1,0-6-6A6.0066,6.0066,0,0,0,32,46Zm0-8a2,2,0,1,1-2,2A2.0026,2.0026,0,0,1,32,38Z"/><path d="M50.5859,34.5859l-24,24a2,2,0,1,0,2.8282,2.8282l24-24a2,2,0,0,0-2.8282-2.8282Z"/><path d="M48,50a6,6,0,1,0,6,6A6.0066,6.0066,0,0,0,48,50Zm0,8a2,2,0,1,1,2-2A2.0026,2.0026,0,0,1,48,58Z"/></g><text x="0" y="111" fill="#000000" font-size="5px" font-weight="bold" font-family="'Helvetica Neue', Helvetica, Arial-Unicode, Arial, Sans-serif">Created by Deemak Daksina</text><text x="0" y="116" fill="#000000" font-size="5px" font-weight="bold" font-family="'Helvetica Neue', Helvetica, Arial-Unicode, Arial, Sans-serif">from the Noun Project</text></svg>